#Comment line ignore any data following # character
#Hierarchical Translation and Rotation (.htr) file
[Header]		#Header keywords are followed by a single value
FileType htr		#Single word string
DataType HTRS		#Translation followed by rotation and scale data
FileVersion 1		#integer
NumSegments 15		#integer
NumFrames 8		#integer
DataFrameRate 60		#integer, data frame rate in this file
EulerRotationOrder ZYX
CalibrationUnits mm
RotationUnits Degrees
GlobalAxisofGravity Y
BoneLengthAxis Y
ScaleFactor 1.000000
[SegmentNames&Hierarchy]
#CHILD	PARENT
1cou	1buste
1buste	1bassin
1brasG	1buste
1brasD	1buste
1avbrasG	1brasG
1avbrasD	1brasD
1mainG	1avbrasG
1mainD	1avbrasD
1bassin	GLOBAL
1cuisseG	1bassin
1cuisseD	1bassin
1moletG	1cuisseG
1moletD	1cuisseD
1piedG	1moletG
1piedD	1moletD
[BasePosition]
#SegmentName Tx, Ty, Tz, Rx, Ry, Rz, BoneLength
1cou	0.000002	394.639771	0.000003	47.447697	-6.500580	2.097482	232.574402
1buste	0.331046	98.159424	9.920088	5.813737	-6.959647	-0.900074	394.639771
1brasG	222.293304	333.760773	-3.143221	-5.521868	-4.449825	-174.025208	338.016541
1brasD	-186.675308	347.235016	-30.968008	-5.508482	16.777920	169.824814	318.101379
1avbrasG	0.000004	338.016571	-0.000002	34.403133	17.432653	23.106703	253.821075
1avbrasD	-0.000007	318.101410	-0.000013	32.381824	-10.529597	-11.344105	276.946075
1mainG	0.000006	253.821091	-0.000001	-3.773718	-0.485368	-1.748444	73.639816
1mainD	-0.000031	276.946106	-0.000010	-3.909555	0.199285	0.225476	80.942635
1bassin	396.031860	1037.839600	833.112305	178.297836	19.764000	-179.799622	97.859962
1cuisseG	108.625954	-0.934603	-40.474510	172.403458	-4.353497	-0.165467	517.714233
1cuisseD	-106.972656	-1.326527	-48.733826	172.076172	-12.757409	2.045154	501.698334
1moletG	0.000006	517.714233	-0.000009	157.872192	5.331374	176.676331	488.075745
1moletD	-0.000005	501.698303	0.000003	156.316269	3.295414	-177.725830	511.880615
1piedG	0.000002	488.075745	-0.000006	99.880898	-0.000004	0.000000	242.425140
1piedD	-0.000009	511.880646	-0.000013	102.622849	0.000000	0.000000	237.138092
#Beginning of Data. Separated by tabs
[1cou]
#Fr	Tx	Ty	Tz	Rx	Ry	Rz	SF
174	0.000006	-34.730316	-0.000002	-7.304478	-24.905216	9.411671	0.966513
175	-0.000005	-35.133301	0.000001	-7.459789	-24.815470	9.672588	0.963626
176	-0.000002	-34.865601	0.000010	-7.584558	-24.909414	9.984729	0.962569
177	-0.000006	-35.001190	0.000019	-7.903218	-25.682570	10.741184	0.961375
178	-0.000007	-34.962860	0.000000	-8.296898	-27.041653	11.502908	0.958768
179	0.000002	-34.888397	-0.000001	-8.050962	-25.741142	10.763289	0.961415
180	-0.000008	-34.768738	0.000022	-7.764150	-24.111225	9.898931	0.961316
181	-0.000009	-34.792267	-0.000012	-7.407263	-23.233227	9.291704	0.962480
[1buste]
#Fr	Tx	Ty	Tz	Rx	Ry	Rz	SF
174	7.025533	-10.411995	8.578482	5.625074	-11.305663	-6.343168	0.911995
175	7.378437	-10.696777	9.280272	6.076937	-11.412703	-6.736878	0.910974
176	7.494345	-10.680992	9.473892	6.187123	-11.413838	-6.844994	0.911652
177	7.907514	-10.868164	9.982449	6.493625	-11.260203	-7.200496	0.911309
178	8.128620	-10.948769	10.284067	6.672916	-11.157341	-7.391533	0.911406
179	8.376590	-10.988174	10.431005	6.745542	-11.000663	-7.557884	0.911594
180	8.468685	-10.981499	10.494951	6.777382	-11.027889	-7.629417	0.911898
181	8.709774	-11.009712	10.483994	6.746240	-10.714697	-7.740937	0.911838
[1brasG]
#Fr	Tx	Ty	Tz	Rx	Ry	Rz	SF
174	-63.429535	-20.488220	32.053711	96.233604	27.461508	68.515671	0.893025
175	-63.337418	-20.937469	32.176968	94.921043	28.050529	68.137543	0.894028
176	-63.407837	-21.115295	32.260902	93.460526	28.731163	67.663033	0.896131
177	-63.387436	-21.872833	32.020123	91.864334	29.416771	67.026512	0.898802
178	-63.298996	-22.681549	31.585821	90.194389	30.050497	66.407104	0.900724
179	-63.283295	-23.466614	30.887753	88.512238	30.685999	65.906548	0.901830
180	-63.201172	-24.365570	30.348015	86.950859	31.222795	65.579071	0.902356
181	-63.370972	-24.841583	30.343836	85.639328	31.757404	65.456009	0.902519
[1brasD]
#Fr	Tx	Ty	Tz	Rx	Ry	Rz	SF
174	-4.962082	-58.627869	-6.902544	6.632901	-19.478004	-1.047401	0.861699
175	-5.428452	-58.570068	-6.591963	6.586544	-18.849308	-1.156339	0.861239
176	-5.920181	-57.833466	-6.584612	6.520194	-18.078655	-1.243676	0.862502
177	-6.200302	-57.538696	-6.440859	6.473691	-17.496960	-1.367719	0.864062
178	-6.497833	-56.856537	-6.356375	6.308554	-17.218658	-1.550416	0.864706
179	-6.982590	-56.040558	-5.832541	6.061742	-17.210791	-1.727584	0.864698
180	-7.556076	-55.047852	-5.154570	5.860639	-17.240993	-1.953936	0.863956
181	-8.121521	-54.487823	-4.969881	5.757362	-17.049404	-2.148364	0.863173
[1avbrasG]
#Fr	Tx	Ty	Tz	Rx	Ry	Rz	SF
174	-0.000010	-36.159424	-0.000013	30.313419	-5.564289	19.895933	1.146856
175	-0.000003	-35.820435	0.000008	31.065962	-6.783635	19.238340	1.148318
176	-0.000017	-35.109314	-0.000003	31.749035	-7.725817	18.787285	1.149174
177	-0.000011	-34.206665	0.000020	32.407715	-8.556125	18.292149	1.150365
178	-0.000024	-33.556976	0.000010	32.905369	-9.225901	17.770832	1.151885
179	0.000016	-33.183014	0.000001	33.075237	-9.496655	17.498758	1.153661
180	-0.000036	-33.005402	0.000021	33.081387	-9.642167	17.138664	1.153387
181	-0.000008	-32.950378	-0.000005	32.829067	-9.547423	16.929577	1.151398
[1avbrasD]
#Fr	Tx	Ty	Tz	Rx	Ry	Rz	SF
174	-0.000008	-43.993744	0.000005	59.070324	-10.145391	-61.486530	0.894813
175	0.000018	-44.140106	0.000004	58.682617	-10.827530	-61.386318	0.890306
176	-0.000006	-43.738403	0.000012	58.406460	-10.787322	-60.500107	0.889938
177	-0.000007	-43.242126	-0.000005	58.198029	-10.329745	-59.332340	0.894727
178	0.000020	-43.037140	0.000011	57.943794	-9.964560	-58.287834	0.904598
179	0.000014	-43.039886	0.000019	57.652744	-9.930568	-57.651516	0.914413
180	-0.000017	-43.275787	-0.000002	57.277470	-10.287586	-57.317982	0.920627
181	0.000019	-43.524994	0.000011	56.861786	-10.693998	-56.956333	0.922386
[1mainG]
#Fr	Tx	Ty	Tz	Rx	Ry	Rz	SF
174	-0.000031	37.274979	-0.000007	1.945520	0.382360	1.495711	1.113463
175	-0.000028	37.646286	-0.000002	1.981830	0.381260	1.539128	1.114571
176	-0.000015	37.863571	-0.000007	2.014449	0.380923	1.573104	1.115106
177	-0.000036	38.165665	-0.000001	2.045270	0.380187	1.598264	1.116030
178	-0.000025	38.551559	-0.000021	2.065701	0.379982	1.613377	1.117415
179	0.000003	39.002335	-0.000009	2.068663	0.380632	1.615084	1.119247
180	-0.000018	38.932907	-0.000013	2.058107	0.381031	1.607296	1.119069
181	-0.000018	38.427963	0.000020	2.029550	0.381832	1.590673	1.117274
[1mainD]
#Fr	Tx	Ty	Tz	Rx	Ry	Rz	SF
174	0.000032	-29.131256	0.000012	2.281805	-0.131769	-0.746916	0.849189
175	0.000056	-30.379333	0.000015	2.240075	-0.120855	-0.688135	0.844649
176	0.000051	-30.481140	0.000029	2.236623	-0.123492	-0.676298	0.844268
177	0.000031	-29.154953	0.000012	2.256983	-0.127974	-0.693151	0.849150
178	0.000036	-26.421097	-0.000012	2.279585	-0.128909	-0.699714	0.859280
179	0.000036	-23.702988	0.000013	2.287873	-0.124794	-0.683499	0.869394
180	0.000031	-21.982025	-0.000000	2.274744	-0.115305	-0.641966	0.875859
181	0.000040	-21.494858	0.000052	2.250699	-0.106082	-0.598349	0.877770
[1bassin]
#Fr	Tx	Ty	Tz	Rx	Ry	Rz	SF
174	-889.417664	-816.041260	-210.847473	-101.970993	-36.287956	98.692429	0.921508
175	-890.334473	-815.920532	-212.722839	-101.928650	-36.762398	98.108353	0.921191
176	-890.988953	-816.371704	-214.745300	-101.658157	-37.404015	97.687592	0.920214
177	-891.945557	-816.535583	-216.422729	-101.617172	-37.809231	97.332672	0.917312
178	-892.407654	-816.657104	-217.995483	-101.480904	-38.269123	96.939384	0.917461
179	-892.435730	-816.910461	-219.286438	-101.434196	-38.719894	96.697563	0.917747
180	-892.350281	-817.084839	-220.760498	-101.229713	-39.229027	96.247940	0.919978
181	-892.493042	-817.534912	-222.127625	-101.166687	-39.684429	96.040726	0.920931
[1cuisseG]
#Fr	Tx	Ty	Tz	Rx	Ry	Rz	SF
174	-7.459206	0.475237	-8.776455	-22.013374	-18.249199	-17.257586	0.997251
175	-7.466728	0.476935	-8.802559	-22.260767	-18.220680	-17.296255	0.997584
176	-7.623062	0.489689	-8.601437	-22.797211	-18.452032	-17.499521	0.996062
177	-7.994728	0.523191	-8.654285	-23.100128	-18.660049	-17.590385	0.996911
178	-7.947655	0.553442	-8.504234	-23.433142	-18.567768	-17.773479	0.996954
179	-7.846481	0.600805	-8.581375	-23.636663	-18.564335	-18.022945	0.996440
180	-7.504677	0.638430	-8.379295	-23.942225	-18.438538	-18.194345	0.995909
181	-7.361618	0.701723	-8.542610	-24.242928	-18.568375	-18.377846	0.995558
[1cuisseD]
#Fr	Tx	Ty	Tz	Rx	Ry	Rz	SF
174	3.222191	-2.616092	12.598351	-59.965904	-10.052344	-23.793556	1.067407
175	3.184822	-2.774531	12.813702	-60.024490	-9.565419	-23.686438	1.067374
176	3.372795	-2.825842	12.862545	-60.290283	-9.226279	-23.844021	1.067901
177	3.653076	-2.979188	13.284988	-60.376225	-8.885857	-23.863203	1.068141
178	3.663727	-3.076935	13.157021	-60.510197	-8.540469	-23.893574	1.068662
179	3.585587	-3.172191	12.974609	-60.580589	-8.301624	-23.964674	1.068800
180	3.386757	-3.224706	12.465622	-60.738438	-7.921393	-24.024937	1.069080
181	3.213852	-3.290755	12.458553	-60.812153	-7.719454	-24.159800	1.069649
[1moletG]
#Fr	Tx	Ty	Tz	Rx	Ry	Rz	SF
174	-0.000008	-1.423035	-0.000007	-5.926232	-11.548596	4.163835	0.944078
175	0.000011	-1.250671	-0.000013	-6.095239	-11.135426	4.385946	0.943498
176	0.000003	-2.038940	-0.000023	-6.303034	-10.453647	4.601347	0.943455
177	0.000003	-1.599243	0.000003	-6.555167	-9.785348	4.787166	0.941593
178	-0.000010	-1.577026	0.000007	-6.801407	-9.398806	4.900265	0.942072
179	0.000014	-1.842896	0.000017	-6.811882	-9.095435	4.944736	0.942966
180	0.000008	-2.117798	0.000031	-6.823454	-8.984981	4.985365	0.943096
181	0.000008	-2.299683	0.000006	-6.907470	-8.679646	5.107495	0.941952
[1moletD]
#Fr	Tx	Ty	Tz	Rx	Ry	Rz	SF
174	0.000000	33.817932	0.000001	-75.188179	6.632119	12.565550	0.865108
175	0.000011	33.801208	-0.000024	-75.185936	6.980173	12.642170	0.865090
176	0.000019	34.065613	-0.000000	-75.196991	7.288730	12.729677	0.865277
177	0.000007	34.186157	-0.000008	-75.230827	7.491189	12.842443	0.865429
178	0.000001	34.447571	-0.000010	-75.239334	7.739769	12.996368	0.865492
179	0.000010	34.516785	-0.000010	-75.251984	8.039859	13.066219	0.865496
180	0.000006	34.657104	-0.000008	-75.286407	8.365519	12.940923	0.866216
181	0.000009	34.942871	-0.000015	-75.344734	8.687700	12.822287	0.866964
[1piedG]
#Fr	Tx	Ty	Tz	Rx	Ry	Rz	SF
174	0.000006	-27.294159	0.000037	-8.217451	0.000001	-0.000004	1.026263
175	-0.000004	-27.577301	-0.000011	-8.659897	-0.000001	-0.000002	1.027942
176	-0.000015	-27.598480	0.000073	-8.909565	-0.000003	-0.000004	1.029215
177	-0.000010	-28.506927	0.000013	-9.104707	-0.000001	-0.000005	1.030006
178	-0.000019	-28.273438	-0.000017	-9.042220	-0.000002	-0.000005	1.029779
179	-0.000023	-27.837036	0.000026	-9.027781	-0.000001	-0.000004	1.026740
180	-0.000041	-27.773438	0.000013	-8.908822	-0.000002	-0.000005	1.025568
181	-0.000006	-28.331818	-0.000010	-8.965240	0.000000	-0.000002	1.025243
[1piedD]
#Fr	Tx	Ty	Tz	Rx	Ry	Rz	SF
174	0.000013	-69.048492	0.000035	4.279532	-0.000000	0.000001	1.037376
175	0.000001	-69.058014	0.000012	4.153534	-0.000000	-0.000001	1.037733
176	-0.000020	-68.961945	0.000033	4.016382	-0.000000	0.000001	1.035910
177	-0.000004	-68.884399	0.000020	3.952091	-0.000000	0.000001	1.035092
178	0.000021	-68.851898	0.000008	3.797305	0.000000	0.000000	1.033337
179	0.000053	-68.850006	0.000015	3.582944	0.000000	-0.000000	1.031063
180	0.000030	-68.481689	0.000024	2.968755	-0.000000	-0.000001	1.025535
181	0.000032	-68.098480	0.000002	2.595745	-0.000000	-0.000000	1.020733
[EndOfFile]
